# xmcd
# Copyright (C) 1995-1998 Ti Kan
#
# Track frame offsets:
#       150
#       11237
#       19262
#       32512
#       41662
#       55612
#       75187
#       91312
#       107712
#       129537
#       133050
#       151157
#       169600
#       200437
#       208687
#       222837
#
# Disc length: 3039 seconds
#
# Revision: 0
# Processed by: cddbd v1.5.2PL0 Copyright (c) Steve Scherf et al.
# Submitted via: CD-Transfer v1.0
#
DISCID=cc0bdd10
DTITLE=Peperonis-Air - 
DYEAR=1900
DGENRE=
TTITLE0=Ready For Take Off
TTITLE1=Begrüssung
TTITLE2=Love Is In The Air
TTITLE3=Flugbegleiter 1
TTITLE4=Meteo
TTITLE5=Schrebergärtli-Blues
TTITLE6=Beep
TTITLE7=So Lange Mann...
TTITLE8=Servus
TTITLE9=Flugbegleiter 2
TTITLE10=Animals News
TTITLE11=Reise Ins Sentimen-Tal
TTITLE12=Ero-Tick
TTITLE13=By By
TTITLE14=I Love Coffee
TTITLE15=Jingle Bells
EXTD=
EXTT0=
EXTT1=
EXTT2=
EXTT3=
EXTT4=
EXTT5=
EXTT6=
EXTT7=
EXTT8=
EXTT9=
EXTT10=
EXTT11=
EXTT12=
EXTT13=
EXTT14=
EXTT15=
PLAYORDER=
